<svg width="243" height="32" viewBox="0 0 243 32" fill="none" xmlns="http://www.w3.org/2000/svg">
<path d="M32.312 0.808C33.9742 0.808 34.8053 1.488 34.8053 2.848C34.8053 3.27111 34.7147 3.8 34.5333 4.43467L33.4453 8.10667C33.1129 9.22489 32.7049 10.0107 32.2213 10.464C31.7378 10.9173 31.0427 11.144 30.136 11.144C29.3804 11.144 28.7911 10.9476 28.368 10.5547C27.9751 10.1618 27.5973 9.54222 27.2347 8.696L26.464 6.83733C26.2222 6.26311 25.9653 5.87022 25.6933 5.65867C25.4213 5.44711 24.9982 5.34133 24.424 5.34133H23.3813L17.624 25.6053C17.5333 25.9982 17.488 26.3458 17.488 26.648C17.488 27.0107 17.5333 27.3129 17.624 27.5547C17.7449 27.7964 17.9111 28.0533 18.1227 28.3253C18.3947 28.7484 18.5307 29.096 18.5307 29.368C18.5307 29.4284 18.5004 29.5796 18.44 29.8213C18.2889 30.2142 17.9867 30.5013 17.5333 30.6827C17.1102 30.864 16.4907 30.9547 15.6747 30.9547H5.02133C4.38667 30.9547 3.888 30.8489 3.52533 30.6373C3.19289 30.4258 3.02667 30.1236 3.02667 29.7307C3.02667 29.5493 3.072 29.368 3.16267 29.1867C3.28356 28.9147 3.41956 28.7182 3.57067 28.5973C3.752 28.4462 4.00889 28.2649 4.34133 28.0533C4.79467 27.7813 5.17244 27.4791 5.47467 27.1467C5.77689 26.8142 6.03378 26.3004 6.24533 25.6053L11.9573 5.34133H10.9147C10.2498 5.34133 9.70578 5.44711 9.28267 5.65867C8.85956 5.87022 8.40622 6.26311 7.92267 6.83733L6.42667 8.696C5.73156 9.512 5.05156 10.1316 4.38667 10.5547C3.752 10.9476 3.05689 11.144 2.30133 11.144C1.60622 11.144 1.06222 10.9627 0.669334 10.6C0.276445 10.2373 0.08 9.73867 0.08 9.104C0.08 8.80178 0.125333 8.46933 0.216 8.10667L1.39467 3.98133C1.63644 3.13511 1.90844 2.50044 2.21067 2.07733C2.51289 1.624 2.936 1.30667 3.48 1.12533C4.05422 0.913778 4.85511 0.808 5.88267 0.808H32.312ZM52.1584 7.01867C53.8509 7.01867 55.1958 7.53244 56.1931 8.56C57.2207 9.58755 57.7344 10.8569 57.7344 12.368C57.7344 12.9422 57.674 13.4711 57.5531 13.9547C57.2509 15.1938 56.6767 16.1458 55.8304 16.8107C54.9842 17.4756 53.9718 17.808 52.7931 17.808C51.6447 17.808 50.7682 17.536 50.1638 16.992C49.5896 16.448 49.0758 15.7227 48.6224 14.816C48.3807 14.3022 48.154 13.9244 47.9424 13.6827C47.7309 13.4409 47.4891 13.32 47.2171 13.32C46.9149 13.32 46.6429 13.4409 46.4011 13.6827C46.1896 13.9244 45.9931 14.3476 45.8118 14.952L42.3211 26.2853C42.2607 26.4364 42.2304 26.6631 42.2304 26.9653C42.2304 27.3582 42.3362 27.6907 42.5478 27.9627C42.7896 28.2044 43.1069 28.4462 43.4998 28.688C43.8624 28.9298 44.1042 29.1262 44.2251 29.2773C44.346 29.4284 44.3913 29.6249 44.3611 29.8667C44.3007 30.2596 44.074 30.5467 43.6811 30.728C43.3184 30.9093 42.6838 31 41.7771 31H30.1718C29.386 31 28.8269 30.8791 28.4944 30.6373C28.1318 30.3653 27.9958 30.0178 28.0864 29.5947C28.2073 29.232 28.5247 28.9147 29.0384 28.6427C29.4918 28.4009 29.8696 28.1138 30.1718 27.7813C30.474 27.4489 30.7309 26.92 30.9424 26.1947L34.9771 13.0933C35.0376 12.9422 35.0678 12.7307 35.0678 12.4587C35.0678 12.1262 34.9922 11.8693 34.8411 11.688C34.7202 11.5067 34.5087 11.28 34.2064 11.008C33.9042 10.7662 33.6927 10.5547 33.5718 10.3733C33.4509 10.192 33.4358 9.95022 33.5264 9.648C33.7078 8.95289 34.6598 8.34844 36.3824 7.83467C38.1051 7.29067 39.9033 7.01867 41.7771 7.01867C43.0162 7.01867 44.0438 7.30578 44.8598 7.88C45.6758 8.424 46.2047 9.20978 46.4464 10.2373C47.8971 8.09155 49.8011 7.01867 52.1584 7.01867ZM70.9523 7.01867C74.4278 7.01867 77.2083 7.66844 79.2936 8.968C81.379 10.2373 82.4216 12.1867 82.4216 14.816C82.4216 15.8133 82.2403 16.9467 81.8776 18.216L80.019 24.472C79.9887 24.5929 79.9736 24.744 79.9736 24.9253C79.9736 25.4089 80.1701 25.6507 80.563 25.6507C80.9256 25.6507 81.2278 25.4996 81.4696 25.1973C81.7416 24.8649 81.923 24.6987 82.0136 24.6987C82.1647 24.6987 82.2856 24.8044 82.3763 25.016C82.4972 25.2276 82.5576 25.4693 82.5576 25.7413C82.5878 26.5573 82.2705 27.3884 81.6056 28.2347C80.971 29.0809 80.1096 29.776 79.0216 30.32C77.9336 30.864 76.7398 31.136 75.4403 31.136C73.8687 31.136 72.5238 30.8489 71.4056 30.2747C70.2874 29.7004 69.5167 28.8542 69.0936 27.736C68.187 28.824 67.1141 29.6702 65.875 30.2747C64.6358 30.8489 63.3061 31.136 61.8856 31.136C60.2838 31.136 58.939 30.8338 57.851 30.2293C56.763 29.5947 55.947 28.7938 55.403 27.8267C54.8892 26.8293 54.6323 25.7867 54.6323 24.6987C54.6323 24.2151 54.6776 23.7467 54.7683 23.2933C55.2518 21.208 56.2945 19.6364 57.8963 18.5787C59.5283 17.5209 61.4625 16.992 63.699 16.992C66.2074 16.992 68.6705 17.3849 71.0883 18.1707L72.2216 15.1787C72.6145 13.9093 72.811 12.9271 72.811 12.232C72.7807 11.5067 72.539 10.9627 72.0856 10.6C71.6323 10.2373 70.9372 10.056 70.0003 10.056C70.1816 10.5396 70.2723 11.0382 70.2723 11.552C70.2723 12.6702 69.8492 13.6373 69.003 14.4533C68.1567 15.2693 66.9478 15.6773 65.3763 15.6773C63.8954 15.6773 62.7318 15.36 61.8856 14.7253C61.0696 14.0604 60.6616 13.2444 60.6616 12.2773C60.6616 10.7662 61.5078 9.512 63.2003 8.51467C64.8927 7.51733 67.4767 7.01867 70.9523 7.01867ZM68.4136 20.7547C67.5674 20.7547 66.8723 21.0871 66.3283 21.752C65.8145 22.3867 65.5576 23.0818 65.5576 23.8373C65.5576 24.3209 65.6634 24.7138 65.875 25.016C66.1167 25.3182 66.4492 25.4693 66.8723 25.4693C67.2652 25.4693 67.6883 25.3182 68.1416 25.016C68.6252 24.6836 68.9727 24.2 69.1843 23.5653L70.1363 20.8907C69.6225 20.8 69.0483 20.7547 68.4136 20.7547ZM105.168 7.01867C106.77 7.01867 108.1 7.59289 109.158 8.74133C110.215 9.88978 110.744 11.4613 110.744 13.456C110.744 16.1458 109.807 18.896 107.934 21.7067C106.06 24.5173 103.687 26.8444 100.816 28.688C97.9452 30.5013 95.1497 31.408 92.4297 31.408C89.8306 31.408 87.715 30.8791 86.083 29.8213C84.4812 28.7636 83.6803 27.2524 83.6803 25.288C83.6803 24.5627 83.8163 23.7467 84.0883 22.84L86.9443 13.0933C87.0048 12.8516 87.035 12.6702 87.035 12.5493C87.035 12.2471 86.9594 11.9902 86.8083 11.7787C86.6572 11.5671 86.4457 11.3404 86.1737 11.0987C85.7203 10.7058 85.4937 10.3582 85.4937 10.056C85.4634 9.63289 85.7203 9.17956 86.2643 8.696C86.8083 8.21244 87.5639 7.81956 88.531 7.51733C89.5283 7.18489 90.6466 7.01867 91.8857 7.01867C93.9106 7.01867 95.4821 7.51733 96.6003 8.51467C97.7488 9.48178 98.323 10.7511 98.323 12.3227C98.323 13.0178 98.2021 13.7733 97.9603 14.5893L95.0137 24.2907C94.923 24.5627 94.8777 24.7893 94.8777 24.9707C94.8777 25.3636 95.0137 25.6658 95.2857 25.8773C95.5577 26.0889 95.9354 26.1947 96.419 26.1947C97.0839 26.1947 97.8546 25.9076 98.731 25.3333C99.6377 24.7289 100.529 23.8827 101.406 22.7947C102.282 21.6764 102.992 20.3618 103.536 18.8507C102.327 17.7929 101.466 16.7502 100.952 15.7227C100.469 14.6951 100.227 13.6373 100.227 12.5493C100.227 11.008 100.65 9.70844 101.496 8.65067C102.343 7.56267 103.567 7.01867 105.168 7.01867ZM125.053 6.792C128.891 6.792 131.672 7.41155 133.394 8.65067C135.117 9.85956 135.978 11.416 135.978 13.32C135.978 13.8942 135.918 14.4231 135.797 14.9067C135.344 16.9013 134.074 18.3369 131.989 19.2133C129.934 20.0596 127.501 20.4827 124.69 20.4827C123.27 20.4827 121.94 20.392 120.701 20.2107C120.671 21.7822 121.094 22.8853 121.97 23.52C122.847 24.1547 124.071 24.472 125.642 24.472C126.368 24.472 127.063 24.3964 127.728 24.2453C128.393 24.064 129.239 23.8071 130.266 23.4747C131.113 23.1724 131.687 23.0213 131.989 23.0213C132.321 23.0213 132.488 23.2178 132.488 23.6107C132.518 24.6684 132.125 25.7867 131.309 26.9653C130.493 28.1138 129.284 29.096 127.682 29.912C126.081 30.728 124.146 31.136 121.88 31.136C118.525 31.136 115.775 30.2898 113.629 28.5973C111.483 26.9049 110.41 24.4418 110.41 21.208C110.41 20.3013 110.531 19.2436 110.773 18.0347C111.529 14.3173 113.176 11.5218 115.714 9.648C118.283 7.744 121.396 6.792 125.053 6.792ZM121.018 17.4907C121.139 17.5209 121.305 17.536 121.517 17.536C122.786 17.536 123.753 16.9467 124.418 15.768C125.083 14.5893 125.401 13.2747 125.37 11.824C125.34 10.9778 125.098 10.5547 124.645 10.5547C124.313 10.5547 123.92 10.8267 123.466 11.3707C123.013 11.8844 122.56 12.6702 122.106 13.728C121.683 14.7858 121.321 16.04 121.018 17.4907ZM160.53 19.304C161.376 19.304 162.01 19.4853 162.434 19.848C162.887 20.1804 163.114 20.664 163.114 21.2987C163.114 21.5707 163.068 21.8729 162.978 22.2053L161.482 27.5093C161.089 28.8089 160.53 29.7156 159.804 30.2293C159.109 30.7431 158.066 31 156.676 31H135.37C134.735 31 134.251 30.8942 133.919 30.6827C133.556 30.4711 133.375 30.184 133.375 29.8213C133.375 29.64 133.42 29.4436 133.511 29.232C133.602 28.9902 133.753 28.7938 133.964 28.6427C134.176 28.4613 134.402 28.2951 134.644 28.144C135.128 27.8418 135.521 27.5396 135.823 27.2373C136.125 26.9049 136.382 26.376 136.594 25.6507L142.124 6.112C142.245 5.71911 142.306 5.34133 142.306 4.97867C142.306 4.64622 142.245 4.37422 142.124 4.16267C142.034 3.92089 141.898 3.64889 141.716 3.34667C141.444 2.95378 141.308 2.63644 141.308 2.39467C141.308 2.304 141.338 2.13778 141.399 1.896C141.52 1.50311 141.777 1.23111 142.17 1.08C142.593 0.898667 143.227 0.808 144.074 0.808H154.727C155.362 0.808 155.845 0.913778 156.178 1.12533C156.54 1.30667 156.722 1.57867 156.722 1.94133C156.722 2.09244 156.676 2.28889 156.586 2.53067C156.495 2.74222 156.359 2.93867 156.178 3.12C156.026 3.27111 155.875 3.392 155.724 3.48267C155.603 3.54311 155.513 3.60356 155.452 3.664C154.969 3.936 154.576 4.23822 154.274 4.57067C153.971 4.90311 153.714 5.41689 153.503 6.112L147.655 26.648H150.466C151.161 26.648 151.75 26.5271 152.234 26.2853C152.747 26.0436 153.276 25.5902 153.82 24.9253L156.948 21.208C157.522 20.5431 158.066 20.0596 158.58 19.7573C159.124 19.4551 159.774 19.304 160.53 19.304ZM190.512 24.744C190.451 24.9858 190.421 25.1671 190.421 25.288C190.421 25.4996 190.466 25.6658 190.557 25.7867C190.678 25.9076 190.829 25.968 191.01 25.968C191.373 25.968 191.675 25.8169 191.917 25.5147C192.189 25.1822 192.37 25.016 192.461 25.016C192.612 25.016 192.733 25.1218 192.824 25.3333C192.944 25.5147 193.005 25.7413 193.005 26.0133C193.035 26.8596 192.733 27.7058 192.098 28.552C191.464 29.368 190.572 30.048 189.424 30.592C188.275 31.136 186.991 31.408 185.57 31.408C183.787 31.408 182.367 31.0453 181.309 30.32C180.251 29.5947 179.571 28.6427 179.269 27.464C178.181 28.6729 176.972 29.5947 175.642 30.2293C174.343 30.8338 173.013 31.136 171.653 31.136C169.537 31.136 167.754 30.6222 166.304 29.5947C164.883 28.5369 164.173 27.0711 164.173 25.1973C164.173 24.3511 164.324 23.4747 164.626 22.568L167.528 13.0933C167.618 12.8213 167.664 12.5947 167.664 12.4133C167.664 12.0809 167.588 11.824 167.437 11.6427C167.286 11.4311 167.059 11.2196 166.757 11.008C166.455 10.7662 166.243 10.5547 166.122 10.3733C166.001 10.192 165.986 9.95022 166.077 9.648C166.258 8.95289 167.21 8.34844 168.933 7.83467C170.656 7.29067 172.454 7.01867 174.328 7.01867C176.08 7.01867 177.365 7.35111 178.181 8.016C178.997 8.68089 179.405 9.58756 179.405 10.736C179.405 11.4311 179.299 12.096 179.088 12.7307L176.232 22.16C176.111 22.4924 176.05 22.8098 176.05 23.112C176.05 23.5351 176.171 23.8524 176.413 24.064C176.655 24.2756 176.972 24.3813 177.365 24.3813C177.939 24.3813 178.408 24.2151 178.77 23.8827C179.133 23.5502 179.496 22.9911 179.858 22.2053L182.624 13.0933C182.714 12.8213 182.76 12.5947 182.76 12.4133C182.76 12.0809 182.684 11.824 182.533 11.6427C182.382 11.4311 182.17 11.2196 181.898 11.008C181.596 10.7662 181.384 10.5547 181.264 10.3733C181.143 10.192 181.128 9.95022 181.218 9.648C181.369 8.95289 182.306 8.34844 184.029 7.83467C185.752 7.29067 187.55 7.01867 189.424 7.01867C191.176 7.01867 192.461 7.35111 193.277 8.016C194.123 8.68089 194.546 9.57244 194.546 10.6907C194.546 11.2649 194.425 11.9449 194.184 12.7307L190.512 24.744ZM209.078 6.61067C211.586 6.61067 213.747 6.83733 215.56 7.29067C217.404 7.744 218.809 8.37867 219.776 9.19467C220.774 10.0107 221.272 10.9324 221.272 11.96C221.272 13.0178 220.849 13.8791 220.003 14.544C219.187 15.2089 218.039 15.5413 216.558 15.5413C215.047 15.5413 213.762 15.1636 212.704 14.408C211.677 13.6524 211.163 12.7004 211.163 11.552C211.163 11.1591 211.223 10.7813 211.344 10.4187C210.8 10.2676 210.317 10.192 209.894 10.192C209.138 10.192 208.503 10.3733 207.99 10.736C207.506 11.0987 207.279 11.6124 207.31 12.2773C207.31 13.0631 207.703 13.728 208.488 14.272C209.274 14.816 210.543 15.496 212.296 16.312C213.807 16.9769 215.047 17.5964 216.014 18.1707C217.011 18.7147 217.842 19.4098 218.507 20.256C219.202 21.1022 219.55 22.0996 219.55 23.248C219.55 23.4898 219.489 23.9431 219.368 24.608C218.885 26.6329 217.54 28.2347 215.334 29.4133C213.127 30.592 210.226 31.1813 206.63 31.1813C202.58 31.1813 199.361 30.6373 196.974 29.5493C194.616 28.4613 193.438 26.9653 193.438 25.0613C193.438 23.7618 193.831 22.7796 194.616 22.1147C195.402 21.4498 196.445 21.1173 197.744 21.1173C199.255 21.1173 200.54 21.5858 201.598 22.5227C202.686 23.4596 203.23 24.6533 203.23 26.104C203.23 26.4969 203.184 26.9049 203.094 27.328C203.819 27.5093 204.514 27.6 205.179 27.6C205.965 27.6 206.615 27.3884 207.128 26.9653C207.642 26.5422 207.899 25.9529 207.899 25.1973C207.869 24.5022 207.521 23.9129 206.856 23.4293C206.191 22.9156 205.134 22.3111 203.683 21.616C202.323 20.9813 201.205 20.392 200.328 19.848C199.452 19.2738 198.696 18.5636 198.062 17.7173C197.457 16.8711 197.155 15.8738 197.155 14.7253C197.155 12.2471 198.183 10.2827 200.238 8.832C202.323 7.35111 205.27 6.61067 209.078 6.61067ZM240.801 7.608C241.375 7.608 241.813 7.72889 242.115 7.97067C242.448 8.21244 242.614 8.54489 242.614 8.968C242.614 9.08889 242.584 9.30044 242.523 9.60267C242.13 10.9324 241.224 11.5973 239.803 11.5973H237.174L233.774 22.7947C233.623 23.248 233.547 23.7164 233.547 24.2C233.547 24.744 233.698 25.1218 234.001 25.3333C234.303 25.5449 234.726 25.6507 235.27 25.6507C235.754 25.6507 236.358 25.5902 237.083 25.4693C237.446 25.3787 237.763 25.3333 238.035 25.3333C238.247 25.3333 238.398 25.4089 238.489 25.56C238.61 25.6809 238.67 25.8471 238.67 26.0587C238.7 26.6631 238.247 27.4036 237.31 28.28C236.403 29.1262 235.164 29.8667 233.593 30.5013C232.021 31.1058 230.283 31.408 228.379 31.408C226.324 31.408 224.677 30.9396 223.438 30.0027C222.199 29.0658 221.579 27.7813 221.579 26.1493C221.579 25.3938 221.7 24.6684 221.942 23.9733L224.843 14.9973C224.994 14.4836 225.07 14.0756 225.07 13.7733C225.07 13.1689 224.919 12.6551 224.617 12.232C224.345 11.8089 223.952 11.3707 223.438 10.9173C222.985 10.4942 222.667 10.1467 222.486 9.87467C222.305 9.57244 222.259 9.22489 222.35 8.832C222.471 8.43911 222.728 8.13689 223.121 7.92533C223.514 7.71378 224.133 7.608 224.979 7.608H227.518L230.374 4.752C231.371 3.75467 232.278 3.05955 233.094 2.66667C233.94 2.27378 235.028 2.07733 236.358 2.07733C238.262 2.07733 239.214 2.80267 239.214 4.25333C239.214 4.70667 239.154 5.12978 239.033 5.52267L238.398 7.608H240.801Z" fill="white"/>
</svg>
