<svg width="255" height="35" viewBox="0 0 255 35" fill="none" xmlns="http://www.w3.org/2000/svg">
<path d="M32.312 3.808C33.9742 3.808 34.8053 4.488 34.8053 5.848C34.8053 6.27111 34.7147 6.8 34.5333 7.43467L33.4453 11.1067C33.1129 12.2249 32.7049 13.0107 32.2213 13.464C31.7378 13.9173 31.0427 14.144 30.136 14.144C29.3804 14.144 28.7911 13.9476 28.368 13.5547C27.9751 13.1618 27.5973 12.5422 27.2347 11.696L26.464 9.83733C26.2222 9.26311 25.9653 8.87022 25.6933 8.65867C25.4213 8.44711 24.9982 8.34133 24.424 8.34133H23.3813L17.624 28.6053C17.5333 28.9982 17.488 29.3458 17.488 29.648C17.488 30.0107 17.5333 30.3129 17.624 30.5547C17.7449 30.7964 17.9111 31.0533 18.1227 31.3253C18.3947 31.7484 18.5307 32.096 18.5307 32.368C18.5307 32.4284 18.5004 32.5796 18.44 32.8213C18.2889 33.2142 17.9867 33.5013 17.5333 33.6827C17.1102 33.864 16.4907 33.9547 15.6747 33.9547H5.02133C4.38667 33.9547 3.888 33.8489 3.52533 33.6373C3.19289 33.4258 3.02667 33.1236 3.02667 32.7307C3.02667 32.5493 3.072 32.368 3.16267 32.1867C3.28356 31.9147 3.41956 31.7182 3.57067 31.5973C3.752 31.4462 4.00889 31.2649 4.34133 31.0533C4.79467 30.7813 5.17244 30.4791 5.47467 30.1467C5.77689 29.8142 6.03378 29.3004 6.24533 28.6053L11.9573 8.34133H10.9147C10.2498 8.34133 9.70578 8.44711 9.28267 8.65867C8.85956 8.87022 8.40622 9.26311 7.92267 9.83733L6.42667 11.696C5.73156 12.512 5.05156 13.1316 4.38667 13.5547C3.752 13.9476 3.05689 14.144 2.30133 14.144C1.60622 14.144 1.06222 13.9627 0.669334 13.6C0.276445 13.2373 0.08 12.7387 0.08 12.104C0.08 11.8018 0.125333 11.4693 0.216 11.1067L1.39467 6.98133C1.63644 6.13511 1.90844 5.50044 2.21067 5.07733C2.51289 4.624 2.936 4.30667 3.48 4.12533C4.05422 3.91378 4.85511 3.808 5.88267 3.808H32.312ZM52.1584 10.0187C53.8509 10.0187 55.1958 10.5324 56.1931 11.56C57.2207 12.5876 57.7344 13.8569 57.7344 15.368C57.7344 15.9422 57.674 16.4711 57.5531 16.9547C57.2509 18.1938 56.6767 19.1458 55.8304 19.8107C54.9842 20.4756 53.9718 20.808 52.7931 20.808C51.6447 20.808 50.7682 20.536 50.1638 19.992C49.5896 19.448 49.0758 18.7227 48.6224 17.816C48.3807 17.3022 48.154 16.9244 47.9424 16.6827C47.7309 16.4409 47.4891 16.32 47.2171 16.32C46.9149 16.32 46.6429 16.4409 46.4011 16.6827C46.1896 16.9244 45.9931 17.3476 45.8118 17.952L42.3211 29.2853C42.2607 29.4364 42.2304 29.6631 42.2304 29.9653C42.2304 30.3582 42.3362 30.6907 42.5478 30.9627C42.7896 31.2044 43.1069 31.4462 43.4998 31.688C43.8624 31.9298 44.1042 32.1262 44.2251 32.2773C44.346 32.4284 44.3913 32.6249 44.3611 32.8667C44.3007 33.2596 44.074 33.5467 43.6811 33.728C43.3184 33.9093 42.6838 34 41.7771 34H30.1718C29.386 34 28.8269 33.8791 28.4944 33.6373C28.1318 33.3653 27.9958 33.0178 28.0864 32.5947C28.2073 32.232 28.5247 31.9147 29.0384 31.6427C29.4918 31.4009 29.8696 31.1138 30.1718 30.7813C30.474 30.4489 30.7309 29.92 30.9424 29.1947L34.9771 16.0933C35.0376 15.9422 35.0678 15.7307 35.0678 15.4587C35.0678 15.1262 34.9922 14.8693 34.8411 14.688C34.7202 14.5067 34.5087 14.28 34.2064 14.008C33.9042 13.7662 33.6927 13.5547 33.5718 13.3733C33.4509 13.192 33.4358 12.9502 33.5264 12.648C33.7078 11.9529 34.6598 11.3484 36.3824 10.8347C38.1051 10.2907 39.9033 10.0187 41.7771 10.0187C43.0162 10.0187 44.0438 10.3058 44.8598 10.88C45.6758 11.424 46.2047 12.2098 46.4464 13.2373C47.8971 11.0916 49.8011 10.0187 52.1584 10.0187ZM70.9523 10.0187C74.4278 10.0187 77.2083 10.6684 79.2936 11.968C81.379 13.2373 82.4216 15.1867 82.4216 17.816C82.4216 18.8133 82.2403 19.9467 81.8776 21.216L80.019 27.472C79.9887 27.5929 79.9736 27.744 79.9736 27.9253C79.9736 28.4089 80.1701 28.6507 80.563 28.6507C80.9256 28.6507 81.2278 28.4996 81.4696 28.1973C81.7416 27.8649 81.923 27.6987 82.0136 27.6987C82.1647 27.6987 82.2856 27.8044 82.3763 28.016C82.4972 28.2276 82.5576 28.4693 82.5576 28.7413C82.5878 29.5573 82.2705 30.3884 81.6056 31.2347C80.971 32.0809 80.1096 32.776 79.0216 33.32C77.9336 33.864 76.7398 34.136 75.4403 34.136C73.8687 34.136 72.5238 33.8489 71.4056 33.2747C70.2874 32.7004 69.5167 31.8542 69.0936 30.736C68.187 31.824 67.1141 32.6702 65.875 33.2747C64.6358 33.8489 63.3061 34.136 61.8856 34.136C60.2838 34.136 58.939 33.8338 57.851 33.2293C56.763 32.5947 55.947 31.7938 55.403 30.8267C54.8892 29.8293 54.6323 28.7867 54.6323 27.6987C54.6323 27.2151 54.6776 26.7467 54.7683 26.2933C55.2518 24.208 56.2945 22.6364 57.8963 21.5787C59.5283 20.5209 61.4625 19.992 63.699 19.992C66.2074 19.992 68.6705 20.3849 71.0883 21.1707L72.2216 18.1787C72.6145 16.9093 72.811 15.9271 72.811 15.232C72.7807 14.5067 72.539 13.9627 72.0856 13.6C71.6323 13.2373 70.9372 13.056 70.0003 13.056C70.1816 13.5396 70.2723 14.0382 70.2723 14.552C70.2723 15.6702 69.8492 16.6373 69.003 17.4533C68.1567 18.2693 66.9478 18.6773 65.3763 18.6773C63.8954 18.6773 62.7318 18.36 61.8856 17.7253C61.0696 17.0604 60.6616 16.2444 60.6616 15.2773C60.6616 13.7662 61.5078 12.512 63.2003 11.5147C64.8927 10.5173 67.4767 10.0187 70.9523 10.0187ZM68.4136 23.7547C67.5674 23.7547 66.8723 24.0871 66.3283 24.752C65.8145 25.3867 65.5576 26.0818 65.5576 26.8373C65.5576 27.3209 65.6634 27.7138 65.875 28.016C66.1167 28.3182 66.4492 28.4693 66.8723 28.4693C67.2652 28.4693 67.6883 28.3182 68.1416 28.016C68.6252 27.6836 68.9727 27.2 69.1843 26.5653L70.1363 23.8907C69.6225 23.8 69.0483 23.7547 68.4136 23.7547ZM105.168 10.0187C106.77 10.0187 108.1 10.5929 109.158 11.7413C110.215 12.8898 110.744 14.4613 110.744 16.456C110.744 19.1458 109.807 21.896 107.934 24.7067C106.06 27.5173 103.687 29.8444 100.816 31.688C97.9452 33.5013 95.1497 34.408 92.4297 34.408C89.8306 34.408 87.715 33.8791 86.083 32.8213C84.4812 31.7636 83.6803 30.2524 83.6803 28.288C83.6803 27.5627 83.8163 26.7467 84.0883 25.84L86.9443 16.0933C87.0048 15.8516 87.035 15.6702 87.035 15.5493C87.035 15.2471 86.9594 14.9902 86.8083 14.7787C86.6572 14.5671 86.4457 14.3404 86.1737 14.0987C85.7203 13.7058 85.4937 13.3582 85.4937 13.056C85.4634 12.6329 85.7203 12.1796 86.2643 11.696C86.8083 11.2124 87.5639 10.8196 88.531 10.5173C89.5283 10.1849 90.6466 10.0187 91.8857 10.0187C93.9106 10.0187 95.4821 10.5173 96.6003 11.5147C97.7488 12.4818 98.323 13.7511 98.323 15.3227C98.323 16.0178 98.2021 16.7733 97.9603 17.5893L95.0137 27.2907C94.923 27.5627 94.8777 27.7893 94.8777 27.9707C94.8777 28.3636 95.0137 28.6658 95.2857 28.8773C95.5577 29.0889 95.9354 29.1947 96.419 29.1947C97.0839 29.1947 97.8546 28.9076 98.731 28.3333C99.6377 27.7289 100.529 26.8827 101.406 25.7947C102.282 24.6764 102.992 23.3618 103.536 21.8507C102.327 20.7929 101.466 19.7502 100.952 18.7227C100.469 17.6951 100.227 16.6373 100.227 15.5493C100.227 14.008 100.65 12.7084 101.496 11.6507C102.343 10.5627 103.567 10.0187 105.168 10.0187ZM125.053 9.792C128.891 9.792 131.672 10.4116 133.394 11.6507C135.117 12.8596 135.978 14.416 135.978 16.32C135.978 16.8942 135.918 17.4231 135.797 17.9067C135.344 19.9013 134.074 21.3369 131.989 22.2133C129.934 23.0596 127.501 23.4827 124.69 23.4827C123.27 23.4827 121.94 23.392 120.701 23.2107C120.671 24.7822 121.094 25.8853 121.97 26.52C122.847 27.1547 124.071 27.472 125.642 27.472C126.368 27.472 127.063 27.3964 127.728 27.2453C128.393 27.064 129.239 26.8071 130.266 26.4747C131.113 26.1724 131.687 26.0213 131.989 26.0213C132.321 26.0213 132.488 26.2178 132.488 26.6107C132.518 27.6684 132.125 28.7867 131.309 29.9653C130.493 31.1138 129.284 32.096 127.682 32.912C126.081 33.728 124.146 34.136 121.88 34.136C118.525 34.136 115.775 33.2898 113.629 31.5973C111.483 29.9049 110.41 27.4418 110.41 24.208C110.41 23.3013 110.531 22.2436 110.773 21.0347C111.529 17.3173 113.176 14.5218 115.714 12.648C118.283 10.744 121.396 9.792 125.053 9.792ZM121.018 20.4907C121.139 20.5209 121.305 20.536 121.517 20.536C122.786 20.536 123.753 19.9467 124.418 18.768C125.083 17.5893 125.401 16.2747 125.37 14.824C125.34 13.9778 125.098 13.5547 124.645 13.5547C124.313 13.5547 123.92 13.8267 123.466 14.3707C123.013 14.8844 122.56 15.6702 122.106 16.728C121.683 17.7858 121.321 19.04 121.018 20.4907ZM156.812 10.0187C158.505 10.0187 159.85 10.5324 160.847 11.56C161.874 12.5876 162.388 13.8569 162.388 15.368C162.388 15.9422 162.328 16.4711 162.207 16.9547C161.905 18.1938 161.33 19.1458 160.484 19.8107C159.638 20.4756 158.626 20.808 157.447 20.808C156.298 20.808 155.422 20.536 154.818 19.992C154.243 19.448 153.73 18.7227 153.276 17.816C153.034 17.3022 152.808 16.9244 152.596 16.6827C152.385 16.4409 152.143 16.32 151.871 16.32C151.569 16.32 151.297 16.4409 151.055 16.6827C150.843 16.9244 150.647 17.3476 150.466 17.952L146.975 29.2853C146.914 29.4364 146.884 29.6631 146.884 29.9653C146.884 30.3582 146.99 30.6907 147.202 30.9627C147.443 31.2044 147.761 31.4462 148.154 31.688C148.516 31.9298 148.758 32.1262 148.879 32.2773C149 32.4284 149.045 32.6249 149.015 32.8667C148.954 33.2596 148.728 33.5467 148.335 33.728C147.972 33.9093 147.338 34 146.431 34H134.826C134.04 34 133.481 33.8791 133.148 33.6373C132.786 33.3653 132.65 33.0178 132.74 32.5947C132.861 32.232 133.178 31.9147 133.692 31.6427C134.146 31.4009 134.523 31.1138 134.826 30.7813C135.128 30.4489 135.385 29.92 135.596 29.1947L139.631 16.0933C139.691 15.9422 139.722 15.7307 139.722 15.4587C139.722 15.1262 139.646 14.8693 139.495 14.688C139.374 14.5067 139.162 14.28 138.86 14.008C138.558 13.7662 138.346 13.5547 138.226 13.3733C138.105 13.192 138.09 12.9502 138.18 12.648C138.362 11.9529 139.314 11.3484 141.036 10.8347C142.759 10.2907 144.557 10.0187 146.431 10.0187C147.67 10.0187 148.698 10.3058 149.514 10.88C150.33 11.424 150.858 12.2098 151.1 13.2373C152.551 11.0916 154.455 10.0187 156.812 10.0187ZM174.326 0.498667C176.079 0.498667 177.363 0.831111 178.179 1.496C179.026 2.16089 179.449 3.06755 179.449 4.216C179.449 4.88089 179.343 5.53067 179.131 6.16533L172.014 29.2853C171.923 29.648 171.878 29.9653 171.878 30.2373C171.878 30.6302 171.954 30.9476 172.105 31.1893C172.256 31.4009 172.467 31.6124 172.739 31.824C172.951 32.0356 173.102 32.2169 173.193 32.368C173.283 32.4889 173.299 32.6551 173.238 32.8667C173.087 33.2596 172.785 33.5467 172.331 33.728C171.878 33.9093 171.183 34 170.246 34H159.91C159.124 34 158.55 33.8791 158.187 33.6373C157.825 33.3653 157.704 33.0178 157.825 32.5947C157.946 32.232 158.263 31.9147 158.777 31.6427C159.23 31.4009 159.608 31.1138 159.91 30.7813C160.212 30.4489 160.469 29.92 160.681 29.1947L167.571 6.57333C167.662 6.30133 167.707 6.07467 167.707 5.89333C167.707 5.56089 167.617 5.28889 167.435 5.07733C167.284 4.86578 167.073 4.65422 166.801 4.44267C166.499 4.20089 166.272 3.98933 166.121 3.808C166 3.62667 165.985 3.38489 166.075 3.08267C166.257 2.38755 167.209 1.78311 168.931 1.26933C170.654 0.755555 172.452 0.498667 174.326 0.498667ZM202.896 27.744C202.835 27.9858 202.805 28.1671 202.805 28.288C202.805 28.4996 202.85 28.6658 202.941 28.7867C203.062 28.9076 203.213 28.968 203.394 28.968C203.757 28.968 204.059 28.8169 204.301 28.5147C204.573 28.1822 204.754 28.016 204.845 28.016C204.996 28.016 205.117 28.1218 205.208 28.3333C205.329 28.5147 205.389 28.7413 205.389 29.0133C205.419 29.8596 205.117 30.7058 204.482 31.552C203.848 32.368 202.956 33.048 201.808 33.592C200.659 34.136 199.375 34.408 197.954 34.408C196.171 34.408 194.751 34.0453 193.693 33.32C192.635 32.5947 191.955 31.6427 191.653 30.464C190.565 31.6729 189.356 32.5947 188.026 33.2293C186.727 33.8338 185.397 34.136 184.037 34.136C181.921 34.136 180.138 33.6222 178.688 32.5947C177.267 31.5369 176.557 30.0711 176.557 28.1973C176.557 27.3511 176.708 26.4747 177.01 25.568L179.912 16.0933C180.002 15.8213 180.048 15.5947 180.048 15.4133C180.048 15.0809 179.972 14.824 179.821 14.6427C179.67 14.4311 179.443 14.2196 179.141 14.008C178.839 13.7662 178.627 13.5547 178.506 13.3733C178.385 13.192 178.37 12.9502 178.461 12.648C178.642 11.9529 179.594 11.3484 181.317 10.8347C183.04 10.2907 184.838 10.0187 186.712 10.0187C188.465 10.0187 189.749 10.3511 190.565 11.016C191.381 11.6809 191.789 12.5876 191.789 13.736C191.789 14.4311 191.683 15.096 191.472 15.7307L188.616 25.16C188.495 25.4924 188.434 25.8098 188.434 26.112C188.434 26.5351 188.555 26.8524 188.797 27.064C189.039 27.2756 189.356 27.3813 189.749 27.3813C190.323 27.3813 190.792 27.2151 191.154 26.8827C191.517 26.5502 191.88 25.9911 192.242 25.2053L195.008 16.0933C195.098 15.8213 195.144 15.5947 195.144 15.4133C195.144 15.0809 195.068 14.824 194.917 14.6427C194.766 14.4311 194.554 14.2196 194.282 14.008C193.98 13.7662 193.769 13.5547 193.648 13.3733C193.527 13.192 193.512 12.9502 193.602 12.648C193.753 11.9529 194.69 11.3484 196.413 10.8347C198.136 10.2907 199.934 10.0187 201.808 10.0187C203.561 10.0187 204.845 10.3511 205.661 11.016C206.507 11.6809 206.93 12.5724 206.93 13.6907C206.93 14.2649 206.809 14.9449 206.568 15.7307L202.896 27.744ZM221.462 9.61067C223.97 9.61067 226.131 9.83733 227.944 10.2907C229.788 10.744 231.193 11.3787 232.16 12.1947C233.158 13.0107 233.656 13.9324 233.656 14.96C233.656 16.0178 233.233 16.8791 232.387 17.544C231.571 18.2089 230.423 18.5413 228.942 18.5413C227.431 18.5413 226.146 18.1636 225.088 17.408C224.061 16.6524 223.547 15.7004 223.547 14.552C223.547 14.1591 223.608 13.7813 223.728 13.4187C223.184 13.2676 222.701 13.192 222.278 13.192C221.522 13.192 220.888 13.3733 220.374 13.736C219.89 14.0987 219.664 14.6124 219.694 15.2773C219.694 16.0631 220.087 16.728 220.872 17.272C221.658 17.816 222.928 18.496 224.68 19.312C226.192 19.9769 227.431 20.5964 228.398 21.1707C229.395 21.7147 230.226 22.4098 230.891 23.256C231.586 24.1022 231.934 25.0996 231.934 26.248C231.934 26.4898 231.873 26.9431 231.752 27.608C231.269 29.6329 229.924 31.2347 227.718 32.4133C225.512 33.592 222.61 34.1813 219.014 34.1813C214.964 34.1813 211.745 33.6373 209.358 32.5493C207 31.4613 205.822 29.9653 205.822 28.0613C205.822 26.7618 206.215 25.7796 207 25.1147C207.786 24.4498 208.829 24.1173 210.128 24.1173C211.64 24.1173 212.924 24.5858 213.982 25.5227C215.07 26.4596 215.614 27.6533 215.614 29.104C215.614 29.4969 215.568 29.9049 215.478 30.328C216.203 30.5093 216.898 30.6 217.563 30.6C218.349 30.6 218.999 30.3884 219.512 29.9653C220.026 29.5422 220.283 28.9529 220.283 28.1973C220.253 27.5022 219.905 26.9129 219.24 26.4293C218.576 25.9156 217.518 25.3111 216.067 24.616C214.707 23.9813 213.589 23.392 212.712 22.848C211.836 22.2738 211.08 21.5636 210.446 20.7173C209.841 19.8711 209.539 18.8738 209.539 17.7253C209.539 15.2471 210.567 13.2827 212.622 11.832C214.707 10.3511 217.654 9.61067 221.462 9.61067ZM253.185 10.608C253.759 10.608 254.197 10.7289 254.5 10.9707C254.832 11.2124 254.998 11.5449 254.998 11.968C254.998 12.0889 254.968 12.3004 254.908 12.6027C254.515 13.9324 253.608 14.5973 252.188 14.5973H249.558L246.158 25.7947C246.007 26.248 245.932 26.7164 245.932 27.2C245.932 27.744 246.083 28.1218 246.385 28.3333C246.687 28.5449 247.11 28.6507 247.654 28.6507C248.138 28.6507 248.742 28.5902 249.468 28.4693C249.83 28.3787 250.148 28.3333 250.42 28.3333C250.631 28.3333 250.782 28.4089 250.873 28.56C250.994 28.6809 251.054 28.8471 251.054 29.0587C251.084 29.6631 250.631 30.4036 249.694 31.28C248.788 32.1262 247.548 32.8667 245.977 33.5013C244.405 34.1058 242.668 34.408 240.764 34.408C238.708 34.408 237.061 33.9396 235.822 33.0027C234.583 32.0658 233.964 30.7813 233.964 29.1493C233.964 28.3938 234.084 27.6684 234.326 26.9733L237.228 17.9973C237.379 17.4836 237.454 17.0756 237.454 16.7733C237.454 16.1689 237.303 15.6551 237.001 15.232C236.729 14.8089 236.336 14.3707 235.822 13.9173C235.369 13.4942 235.052 13.1467 234.87 12.8747C234.689 12.5724 234.644 12.2249 234.734 11.832C234.855 11.4391 235.112 11.1369 235.505 10.9253C235.898 10.7138 236.517 10.608 237.364 10.608H239.902L242.758 7.752C243.756 6.75467 244.662 6.05955 245.478 5.66667C246.324 5.27378 247.412 5.07733 248.742 5.07733C250.646 5.07733 251.598 5.80267 251.598 7.25333C251.598 7.70667 251.538 8.12978 251.417 8.52267L250.782 10.608H253.185Z" fill="white"/>
</svg>
